<?xml version="1.0" encoding="utf-8"?>
<!-- Generator: Adobe Illustrator 20.0.0, SVG Export Plug-In . SVG Version: 6.00 Build 0)  -->
<svg version="1.1" id="Layer_1" xmlns="http://www.w3.org/2000/svg" xmlns:xlink="http://www.w3.org/1999/xlink" x="0px" y="0px"
	 viewBox="0 0 500 500" style="enable-background:new 0 0 500 500;" xml:space="preserve">
<style type="text/css">
	.st0{fill:#9AA19D;}
	.st1{fill:#7B817F;}
	.st2{fill:#948E8B;}
	.st3{fill:#8A8E89;}
	.st4{fill:#777874;}
	.st5{fill:#656565;}
	.st6{fill:#C8EBE1;}
	.st7{fill:#A3D2C5;}
	.st8{fill:#C0DFD8;}
	.st9{fill:#82C3B2;}
	.st10{fill:#62A894;}
	.st11{fill:#565150;}
	.st12{fill:#C6E9E0;}
</style>
<g>
	<g>
		<path class="st0" d="M257.8,148c-1.7,3.1-1.7,6.7-2.4,10.1c-5,24.1-16.1,45.3-34.2,61.9c-16.5,15-36,25.2-58.8,27.2
			c-15.1,1.3-30.3,1.3-45.1-2.1c-12.9-2.9-23.3-10.4-31.3-21c-4.3-5.7-9-10.7-17.1-10.1c1.4-3.6,5.8-1.6,7.8-4.2
			c1.8-3.8,0.4-7.2-1.6-10.3c-3.6-5.9-6.3-11.8-4.8-19.1c0.8-3.8-2-6-5.3-7.5c-1.5-0.7-3.3-0.5-4.4-2c14.3-8.5,30-13.4,45.9-17.8
			c34.5-9.4,68.5-20.4,102.4-32c6.3-2.1,12.2-5.5,18.8-6.6c8.1-1.4,15.7-0.9,21.1,6.4c0,1,0,2.1,0.5,2.9c4.1,6.6,6.4,13.7,7.1,21.5
			C256.8,146.3,257.1,147.3,257.8,148z"/>
		<path class="st1" d="M278.9,105.8c1.3-8.3,7.3-12,14.5-14c33.3-9.7,65.6-22.5,98.7-32.8c15.2-4.7,29.7-11.6,45.3-15.3
			c6.5-1.6,12.9-3.4,19.6-2.6c1,3.8,3.7,6,7.3,7.3c4,1.5,5.9,5.8,9.8,7.4c5.3,21.2,2.4,41.6-6.4,61.2c-4.6,10.3-10.3,20.1-18.5,28.1
			c-4.2-0.2-6.6-2.4-6.8-6.7c0.7-2.3,2.4-4,3.8-5.8c7.9-9.9,11.6-21.3,12.1-33.7c0.5-11.7,1.1-23.6-0.7-35.3
			c-0.2-1.3-0.3-2.7-1.3-3.7c-7-8.2-15.8-7-24.7-4.7c-6.9,1.8-13.2,5.4-19.6,8.4c-1.8,0.8-3.7,1.6-5.6,2.2c-1.4,0.4-2.9,0.8-4.3,1.4
			c-12.3,3.8-24,9-36,13.5c-3.8,1.2-7.6,2.7-11.3,4.3c-16.2,5.6-32.7,9.9-49,15.2c-8.3,2.7-8.5,3-8.6,11.5c-0.5,7-1.5,7.8-8.4,6.1
			c-0.8-0.2-1.6-0.4-2.4-0.6C277.7,115.2,277.7,115.2,278.9,105.8z"/>
		<path class="st2" d="M78,211c-2.6,2.1-6.3,1.1-9,2.8c-4.9,1.2-7.9,4.5-10.5,8.6c-5.8,9-7.4,18.9-8.3,29.3
			c-3.2,39-7.8,77.8-9.1,117c-0.6,19.8-0.8,39.6,0.7,59.4c0.3,4.3,1,8.6,2.9,12.6c5,10.9,13.5,15.2,25.2,12.7
			c4.7-1,9.3-2.7,13.6-4.9c1.5-0.8,2.9-1.7,4.7-1.5c1.3,0.1,2.9,0.4,3.5,1.5c0.7,1.2-0.8,2-1.4,2.9c-5.5,8.5-13.2,12.3-23.4,11.2
			c-3.8-0.4-7.7-0.3-11.4-1.1C41.5,459.1,35.4,450.9,33,435c-2.1-14.2,0.2-28.6,0.4-42.9c0.1-15.3,1.1-30.6,1.7-45.9
			c0.9-23.6,3.3-47.1,6.2-70.6c1.5-11.9,0.3-24,0.8-35.9c0.7-18.8,2.7-37.5,7.9-55.7c1.1-3.8,2.7-7.5,5.9-10.2
			c1.4,1,1.4,2.6,1.5,4.1c-0.1,8.6-2.6,16.9-2,25.6c0.4,5.2,0.6,5.6,6.1,6.2c3.8-0.1,7.6-0.2,11.4-0.1C74.8,209.5,76.7,209.5,78,211
			z"/>
		<path class="st3" d="M443,139c1,3.2,3.7,4.5,6.2,6.1c-12.5,12.9-27.3,22.7-44.5,27.5c-13.6,3.8-27.8,5-42.1,4
			c-12.9-0.9-25.4-2.7-37-9.1c-8.1-4.5-15.5-9.9-21.1-17.3c-7.7-10.2-17.6-13.3-29.5-10.4c-6.2,1.5-13.6,0.9-17.3,8.1
			c-2.8,1.1-2.3-1.7-2.4-2.5c-0.6-8-3-15.3-7.5-21.8c-1-1.4-0.9-2.5,1.2-2.7c1.4,0.6,2.8,1.1,4.1,1.7c11.8,5.9,24.2-1,25.1-14.1
			c0.1-0.9,0.4-1.9,0.7-2.8c0.3,8.1,0.3,8.1,8.2,10c0.6,0.2,1.3,0.2,2,0.3c6.9,1.8,6.9,1.8,7-5.2c2.6,0.4,2.1,2.7,2.3,4.3
			c1,7.1,3.8,13.4,8.2,19c4.7,6,9.1,12.1,14.9,17.3c10.3,9.2,22.4,13.1,35.5,13.9c14.6,0.9,29.2,0.6,43.6-2.7
			c14.2-3.2,25.7-11.3,36.6-20.4C439,140.9,440.2,138.5,443,139z"/>
		<path class="st4" d="M78,211c-5.7,0-11.4-0.1-17.1-0.1c-0.5-2.3,1-3.8,2.2-5.3c3.6-4.4,4.2-9.2,2.8-14.5c-0.6-2.2-1.6-4.4-1.9-6.7
			c-0.7-4.9-3-7.3-8.1-6.5c0-1.4-0.1-2.8-0.1-4.2c1.2-1.8,3-2.4,4.9-2.9c9.5,0.8,11.7,3.8,10.5,13c-0.7,5.3,1.9,9.9,4.8,14.3
			C78.7,202.1,80.3,206.3,78,211z"/>
		<path class="st5" d="M474.1,55.8c-2,2.2-2.9-0.2-3.9-1.1c-2.6-2.6-5.2-5.3-8.8-6.3c-4-1.1-5.2-3.5-4.5-7.3
			C466.2,39.2,473,45.1,474.1,55.8z"/>
		<path class="st6" d="M154.3,236c-16.6,0.2-30-1.4-42.4-8c-3.4-1.8-6.6-3.8-9.1-6.8c-7.8-9.3-17.4-17-23.2-27.9
			c-1-1.9-2-3.8-2.7-5.9c-2.1-5.7-0.4-10.7,5.1-13.3c11.9-5.6,24.9-8.2,37.4-11.9c22.5-6.6,44.9-13.3,66.3-23
			c5.6-2.5,11.7-3.8,17.7-4.7c5.3-0.8,10.4-2.3,15.5-3.8c8.6-2.6,15.1,1.6,16.2,10.3c2.2,17,1.5,33.8-4.8,50c-3.1,8-8,15-14.7,20.3
			c-5.9,4.6-11.1,9.9-17.6,13.9C183.5,234.1,167.9,236.4,154.3,236z"/>
		<path class="st7" d="M443,139c-8.1,8-17.5,14.2-27.3,19.8c-10,5.7-21.1,7-32.1,7.8c-14.4,1.1-28.9,1.5-43-2.8
			c-11.6-3.5-20.5-10.6-28-19.7c-6.4-7.8-13-15.6-15.1-26c-0.5-2.4,0.4-5.1-1.4-7.2c0-8.6,0.4-9.2,8.4-11.7
			c16.8-5.1,33.7-10.2,50.6-15.3c14.1-0.4,22.2,7.3,23.3,22.2c0.2,2.2-0.1,4.3,0.5,6.4c1.1,3.7,3.5,4.3,6.2,1.7
			c0.5-0.5,0.9-1,1.3-1.5c6.3-10.2,15.9-13.5,27.3-13.1c3.7,0.1,7.3,0,11,0c3.3,0,5.5-1,5.8-4.6c0.3-3.4-1.8-5-4.7-5.3
			c-10.5-1.2-15.3-8.3-18.5-17.3c-0.5-1.5-1.4-3.1-0.2-4.7c3.3-1.4,4.9,0.9,6.6,3c1.1,1.4,1.6,3.3,2.5,4.9c3.3,6.1,7.9,8.3,14.5,6.5
			c6.3-1.7,12.4-3.1,19-1.1c3.8,1.2,5.3-1.8,5.8-5.1c0.5-3.8,0.1-7.6,0.3-11.4c0.1-1.9-0.3-4,1.4-5.6c3.3,2.4,2.4,6.3,2.5,9.2
			c0.6,13.6,1.3,27.2-1,40.8C456.6,120.6,450.5,130.2,443,139z"/>
		<path class="st8" d="M457.1,58.9c0,5.3,0.1,10.6-0.1,16c-0.2,7.1-3.3,9.3-9.9,7c-4.6-1.6-8.9-0.8-13.1,0.8
			c-8.7,3.2-16.3,1.8-20.4-9.4c-1-2.8-2.8-5.4-6.5-5.3c-1.4-0.6-2-1.5-1-3c11.2-4.7,21.7-11.8,34.3-12.6
			C446.7,52.1,452.8,53.1,457.1,58.9z"/>
		<path class="st9" d="M406,65c0.3,1,0.7,2,1,3c1.8,5.3,3.4,10.8,7.4,15c2.9,3,6.1,4.8,10.4,5.1c6.5,0.6,8.2,3.6,6.5,9.4
			c-0.8,2.8-2.4,3.5-5.1,3.6c-7.3,0.2-14.6-0.7-21.9,0.6c-7.8,1.3-13.2,5.8-17.3,12.2c-1.4,2.2-3,5-6.2,3.9c-3-1-3.8-3.9-3.9-6.9
			c-0.1-2.8-0.4-5.6-0.6-8.4c-0.7-10.5-8.9-16.2-19.2-17.4c-0.8-0.1-1.5-0.6-2.2-0.9c3.4-2,7-3.7,11-4c7.1,4.6,13.9,9.5,18.4,17
			c3,5,3.3,4.9,7.6,1.2c2.6-2.3,5.6-4.2,8.4-6.2c5-3.6,5.5-6.7,2-11.8c-0.5-0.7-0.9-1.4-1.5-2c-3.1-2.9-3.3-5.9-0.6-9.2
			c0.7-0.9,1.1-2,1.8-3C403.2,65.3,404.5,64.9,406,65z"/>
		<path class="st10" d="M402,66.1c0,0.8,0.3,2-0.1,2.4c-4.8,4.8-0.8,8,1.8,11.6c3.7,5.2,3,8.9-2.2,12.7c-3.9,2.8-8.3,4.9-11,9.1
			c-1,1.6-2.5,1.2-3.9,0.1c-1.4-1.2-2.4-2.7-3.3-4.4c-2.9-5.2-7.1-9.2-12-12.4c-2.1-1.4-3.9-3-5.3-5.2c6.8-4.3,14.7-5.8,22-9
			C392.5,68.9,397.3,67.7,402,66.1z"/>
		<path class="st11" d="M56,178c1.4-0.5,2.8-1.1,4.2-1.6c2-0.7,3.5-0.1,3.7,2c0.4,3.9,1.9,7.4,3.1,10.9c3.2,8.7-0.7,15.3-6,21.7
			c-6.6,0.2-6.6-0.1-7.1-6.9C53.3,195.3,55.7,186.7,56,178z"/>
		<path class="st12" d="M370.9,162c-12.1,0.6-25.8-0.8-38.2-7.8c-15.3-8.6-26.3-21-30.4-38.7c-1.2-5.3,0.3-7.3,5.5-8.8
			c8-2.3,15.5-5.9,22.9-9.7c8.4-4.4,17.2-6.6,26.8-6.2c8.9,0.5,12.5,4.6,11.9,13.6c-0.4,5.6,0.8,11.2,4.5,15.9
			c6.1,7.6,14.5,12.6,22,18.5c2.7,2.1,5.5,1.2,8-1.3c2.6-2.6,2.2-4.9,0.4-7.5c-2.6-3.9-4.8-8-6.1-12.5c-1.6-5.7,0.5-10.2,6.3-11.5
			c14.1-3.2,28.3-3.3,42.3,0.9c3.7,1.1,4.4,9,1.5,14c-4.6,7.8-10.7,14.4-17.4,20.4c-8.7,7.9-19,13.4-29.9,17.7
			C392.1,162.7,382.3,162,370.9,162z"/>
	</g>
</g>
</svg>
